<mxfile host="app.diagrams.net" agent="Mozilla/5.0 (Windows NT 10.0; Win64; x64) AppleWebKit/537.36 (KHTML, like Gecko) Chrome/135.0.0.0 Safari/537.36 Edg/135.0.0.0" version="26.2.10">
  <diagram name="第 1 页" id="43g43-p8lrJT_yF0-TSw">
    <mxGraphModel dx="1016" dy="590" grid="1" gridSize="10" guides="1" tooltips="1" connect="1" arrows="1" fold="1" page="1" pageScale="1" pageWidth="827" pageHeight="1169" math="0" shadow="0">
      <root>
        <mxCell id="0" />
        <mxCell id="1" parent="0" />
        <mxCell id="D2ccaEsxYQHLOQnfDHp8-46" value="&amp;nbsp;" style="text;html=1;align=center;verticalAlign=middle;whiteSpace=wrap;rounded=0;fontSize=13;" parent="1" vertex="1">
          <mxGeometry x="110" y="40" width="670" height="790" as="geometry" />
        </mxCell>
        <mxCell id="HhtwTcWfGdD0Mg4PWCBJ-5" style="edgeStyle=orthogonalEdgeStyle;rounded=0;orthogonalLoop=1;jettySize=auto;html=1;fontSize=13;" edge="1" parent="1" source="D2ccaEsxYQHLOQnfDHp8-1" target="HhtwTcWfGdD0Mg4PWCBJ-2">
          <mxGeometry relative="1" as="geometry">
            <Array as="points">
              <mxPoint x="440" y="90" />
              <mxPoint x="260" y="90" />
            </Array>
          </mxGeometry>
        </mxCell>
        <mxCell id="HhtwTcWfGdD0Mg4PWCBJ-6" style="edgeStyle=orthogonalEdgeStyle;rounded=0;orthogonalLoop=1;jettySize=auto;html=1;fontSize=13;" edge="1" parent="1" source="D2ccaEsxYQHLOQnfDHp8-1" target="HhtwTcWfGdD0Mg4PWCBJ-3">
          <mxGeometry relative="1" as="geometry">
            <Array as="points">
              <mxPoint x="440" y="90" />
              <mxPoint x="620" y="90" />
            </Array>
          </mxGeometry>
        </mxCell>
        <mxCell id="D2ccaEsxYQHLOQnfDHp8-1" value="&lt;font&gt;确立课题研究内容，查阅国内外文献&lt;/font&gt;" style="rounded=0;whiteSpace=wrap;html=1;fontSize=13;fontFamily=宋体;" parent="1" vertex="1">
          <mxGeometry x="280" y="55" width="320" height="25" as="geometry" />
        </mxCell>
        <mxCell id="D2ccaEsxYQHLOQnfDHp8-2" value="&lt;font&gt;专家咨询及修订&lt;/font&gt;" style="rounded=0;whiteSpace=wrap;html=1;fontSize=13;fontFamily=宋体;" parent="1" vertex="1">
          <mxGeometry x="279.5" y="163" width="320" height="25" as="geometry" />
        </mxCell>
        <mxCell id="HhtwTcWfGdD0Mg4PWCBJ-13" style="edgeStyle=orthogonalEdgeStyle;rounded=0;orthogonalLoop=1;jettySize=auto;html=1;entryX=0.5;entryY=0;entryDx=0;entryDy=0;fontSize=13;" edge="1" parent="1" source="D2ccaEsxYQHLOQnfDHp8-3" target="D2ccaEsxYQHLOQnfDHp8-4">
          <mxGeometry relative="1" as="geometry" />
        </mxCell>
        <mxCell id="D2ccaEsxYQHLOQnfDHp8-3" value="根据方案进行预实验，检验试验设计的科学性和可行性" style="rounded=0;whiteSpace=wrap;html=1;fontSize=13;fontFamily=宋体;" parent="1" vertex="1">
          <mxGeometry x="280" y="210" width="320" height="25" as="geometry" />
        </mxCell>
        <mxCell id="D2ccaEsxYQHLOQnfDHp8-4" value="进一步修订和完善干预方案" style="rounded=0;whiteSpace=wrap;html=1;fontSize=13;fontFamily=宋体;" parent="1" vertex="1">
          <mxGeometry x="280" y="260" width="320" height="25" as="geometry" />
        </mxCell>
        <mxCell id="D2ccaEsxYQHLOQnfDHp8-31" style="edgeStyle=orthogonalEdgeStyle;rounded=0;orthogonalLoop=1;jettySize=auto;html=1;entryX=0.5;entryY=0;entryDx=0;entryDy=0;fontFamily=宋体;fontSize=13;" parent="1" source="D2ccaEsxYQHLOQnfDHp8-6" target="D2ccaEsxYQHLOQnfDHp8-7" edge="1">
          <mxGeometry relative="1" as="geometry" />
        </mxCell>
        <mxCell id="D2ccaEsxYQHLOQnfDHp8-32" style="edgeStyle=orthogonalEdgeStyle;rounded=0;orthogonalLoop=1;jettySize=auto;html=1;fontFamily=宋体;fontSize=13;" parent="1" source="D2ccaEsxYQHLOQnfDHp8-6" target="D2ccaEsxYQHLOQnfDHp8-8" edge="1">
          <mxGeometry relative="1" as="geometry" />
        </mxCell>
        <mxCell id="D2ccaEsxYQHLOQnfDHp8-6" value="正式试验：按纳入标准和排除标准确立研究对象&lt;div&gt;（n=72）&lt;/div&gt;" style="rounded=0;whiteSpace=wrap;html=1;fontSize=13;fontFamily=宋体;" parent="1" vertex="1">
          <mxGeometry x="278.5" y="310" width="320" height="38" as="geometry" />
        </mxCell>
        <mxCell id="D2ccaEsxYQHLOQnfDHp8-33" style="edgeStyle=orthogonalEdgeStyle;rounded=0;orthogonalLoop=1;jettySize=auto;html=1;exitX=0.5;exitY=1;exitDx=0;exitDy=0;entryX=0.5;entryY=0;entryDx=0;entryDy=0;fontFamily=宋体;fontSize=13;" parent="1" source="D2ccaEsxYQHLOQnfDHp8-7" target="D2ccaEsxYQHLOQnfDHp8-9" edge="1">
          <mxGeometry relative="1" as="geometry" />
        </mxCell>
        <mxCell id="D2ccaEsxYQHLOQnfDHp8-7" value="对照组&lt;div&gt;（n=36）&lt;/div&gt;" style="rounded=0;whiteSpace=wrap;html=1;fontFamily=宋体;fontSize=13;" parent="1" vertex="1">
          <mxGeometry x="265" y="400" width="80" height="30" as="geometry" />
        </mxCell>
        <mxCell id="D2ccaEsxYQHLOQnfDHp8-34" style="edgeStyle=orthogonalEdgeStyle;rounded=0;orthogonalLoop=1;jettySize=auto;html=1;exitX=0.5;exitY=1;exitDx=0;exitDy=0;entryX=0.5;entryY=0;entryDx=0;entryDy=0;fontFamily=宋体;fontSize=13;" parent="1" source="D2ccaEsxYQHLOQnfDHp8-8" target="D2ccaEsxYQHLOQnfDHp8-10" edge="1">
          <mxGeometry relative="1" as="geometry" />
        </mxCell>
        <mxCell id="D2ccaEsxYQHLOQnfDHp8-8" value="试验组&lt;div&gt;（n=36）&lt;/div&gt;" style="rounded=0;whiteSpace=wrap;html=1;fontFamily=宋体;fontSize=13;" parent="1" vertex="1">
          <mxGeometry x="545" y="400" width="80" height="30" as="geometry" />
        </mxCell>
        <mxCell id="D2ccaEsxYQHLOQnfDHp8-36" style="edgeStyle=orthogonalEdgeStyle;rounded=0;orthogonalLoop=1;jettySize=auto;html=1;entryX=0.5;entryY=0;entryDx=0;entryDy=0;fontFamily=宋体;fontSize=13;" parent="1" source="D2ccaEsxYQHLOQnfDHp8-9" target="D2ccaEsxYQHLOQnfDHp8-11" edge="1">
          <mxGeometry relative="1" as="geometry">
            <Array as="points">
              <mxPoint x="305" y="520" />
              <mxPoint x="439" y="520" />
            </Array>
          </mxGeometry>
        </mxCell>
        <mxCell id="D2ccaEsxYQHLOQnfDHp8-9" value="&lt;font&gt;采取常规治疗，包括四神丸&lt;/font&gt;&lt;div&gt;&lt;font&gt;和常规护理&lt;/font&gt;&lt;/div&gt;" style="rounded=0;whiteSpace=wrap;html=1;fontSize=13;fontFamily=宋体;" parent="1" vertex="1">
          <mxGeometry x="220" y="460" width="170" height="40" as="geometry" />
        </mxCell>
        <mxCell id="D2ccaEsxYQHLOQnfDHp8-38" style="edgeStyle=orthogonalEdgeStyle;rounded=0;orthogonalLoop=1;jettySize=auto;html=1;entryX=0.5;entryY=0;entryDx=0;entryDy=0;fontFamily=宋体;fontSize=13;" parent="1" source="D2ccaEsxYQHLOQnfDHp8-10" target="D2ccaEsxYQHLOQnfDHp8-11" edge="1">
          <mxGeometry relative="1" as="geometry">
            <Array as="points">
              <mxPoint x="585" y="520" />
              <mxPoint x="439" y="520" />
            </Array>
          </mxGeometry>
        </mxCell>
        <mxCell id="D2ccaEsxYQHLOQnfDHp8-10" value="&lt;font&gt;采取常规治疗+乌金馒头&lt;/font&gt;" style="rounded=0;whiteSpace=wrap;html=1;fontSize=13;fontFamily=宋体;" parent="1" vertex="1">
          <mxGeometry x="500" y="460" width="170" height="40" as="geometry" />
        </mxCell>
        <mxCell id="D2ccaEsxYQHLOQnfDHp8-20" style="edgeStyle=orthogonalEdgeStyle;rounded=0;orthogonalLoop=1;jettySize=auto;html=1;fontFamily=宋体;fontSize=13;" parent="1" source="D2ccaEsxYQHLOQnfDHp8-11" target="D2ccaEsxYQHLOQnfDHp8-14" edge="1">
          <mxGeometry relative="1" as="geometry" />
        </mxCell>
        <mxCell id="D2ccaEsxYQHLOQnfDHp8-21" style="edgeStyle=orthogonalEdgeStyle;rounded=0;orthogonalLoop=1;jettySize=auto;html=1;fontFamily=宋体;fontSize=13;" parent="1" source="D2ccaEsxYQHLOQnfDHp8-11" target="D2ccaEsxYQHLOQnfDHp8-15" edge="1">
          <mxGeometry relative="1" as="geometry" />
        </mxCell>
        <mxCell id="D2ccaEsxYQHLOQnfDHp8-23" style="edgeStyle=orthogonalEdgeStyle;rounded=0;orthogonalLoop=1;jettySize=auto;html=1;exitX=0.5;exitY=1;exitDx=0;exitDy=0;fontFamily=宋体;fontSize=13;" parent="1" source="D2ccaEsxYQHLOQnfDHp8-11" target="D2ccaEsxYQHLOQnfDHp8-16" edge="1">
          <mxGeometry relative="1" as="geometry">
            <Array as="points">
              <mxPoint x="439" y="591" />
              <mxPoint x="687" y="591" />
            </Array>
          </mxGeometry>
        </mxCell>
        <mxCell id="D2ccaEsxYQHLOQnfDHp8-26" style="edgeStyle=orthogonalEdgeStyle;rounded=0;orthogonalLoop=1;jettySize=auto;html=1;exitX=0.5;exitY=1;exitDx=0;exitDy=0;fontFamily=宋体;fontSize=13;" parent="1" source="D2ccaEsxYQHLOQnfDHp8-11" target="D2ccaEsxYQHLOQnfDHp8-13" edge="1">
          <mxGeometry relative="1" as="geometry">
            <Array as="points">
              <mxPoint x="439" y="591" />
              <mxPoint x="198" y="591" />
            </Array>
          </mxGeometry>
        </mxCell>
        <mxCell id="D2ccaEsxYQHLOQnfDHp8-11" value="&lt;font&gt;干预前，干预4周后分别测量并记录指标&lt;/font&gt;" style="rounded=0;whiteSpace=wrap;html=1;fontSize=13;fontFamily=宋体;" parent="1" vertex="1">
          <mxGeometry x="279.5" y="536" width="319" height="35" as="geometry" />
        </mxCell>
        <mxCell id="D2ccaEsxYQHLOQnfDHp8-40" style="edgeStyle=orthogonalEdgeStyle;rounded=0;orthogonalLoop=1;jettySize=auto;html=1;exitX=0.5;exitY=1;exitDx=0;exitDy=0;fontFamily=宋体;fontSize=13;" parent="1" source="D2ccaEsxYQHLOQnfDHp8-13" target="D2ccaEsxYQHLOQnfDHp8-17" edge="1">
          <mxGeometry relative="1" as="geometry" />
        </mxCell>
        <mxCell id="D2ccaEsxYQHLOQnfDHp8-13" value="大便形状及排便频率积分" style="rounded=0;whiteSpace=wrap;html=1;fontFamily=宋体;fontSize=13;" parent="1" vertex="1">
          <mxGeometry x="150" y="610" width="95" height="40" as="geometry" />
        </mxCell>
        <mxCell id="D2ccaEsxYQHLOQnfDHp8-41" style="edgeStyle=orthogonalEdgeStyle;rounded=0;orthogonalLoop=1;jettySize=auto;html=1;exitX=0.5;exitY=1;exitDx=0;exitDy=0;entryX=0.5;entryY=0;entryDx=0;entryDy=0;fontFamily=宋体;fontSize=13;" parent="1" source="D2ccaEsxYQHLOQnfDHp8-14" target="D2ccaEsxYQHLOQnfDHp8-17" edge="1">
          <mxGeometry relative="1" as="geometry" />
        </mxCell>
        <mxCell id="D2ccaEsxYQHLOQnfDHp8-14" value="总体症状严重程度积分" style="rounded=0;whiteSpace=wrap;html=1;fontFamily=宋体;fontSize=13;" parent="1" vertex="1">
          <mxGeometry x="304" y="610" width="95" height="40" as="geometry" />
        </mxCell>
        <mxCell id="D2ccaEsxYQHLOQnfDHp8-43" style="edgeStyle=orthogonalEdgeStyle;rounded=0;orthogonalLoop=1;jettySize=auto;html=1;exitX=0.5;exitY=1;exitDx=0;exitDy=0;entryX=0.5;entryY=0;entryDx=0;entryDy=0;fontFamily=宋体;fontSize=13;" parent="1" source="D2ccaEsxYQHLOQnfDHp8-15" target="D2ccaEsxYQHLOQnfDHp8-17" edge="1">
          <mxGeometry relative="1" as="geometry" />
        </mxCell>
        <mxCell id="D2ccaEsxYQHLOQnfDHp8-15" value="SF-36生活质量&lt;div&gt;评分&lt;/div&gt;" style="rounded=0;whiteSpace=wrap;html=1;fontFamily=宋体;fontSize=13;" parent="1" vertex="1">
          <mxGeometry x="467" y="610" width="95" height="40" as="geometry" />
        </mxCell>
        <mxCell id="D2ccaEsxYQHLOQnfDHp8-44" style="edgeStyle=orthogonalEdgeStyle;rounded=0;orthogonalLoop=1;jettySize=auto;html=1;exitX=0.5;exitY=1;exitDx=0;exitDy=0;entryX=0.5;entryY=0;entryDx=0;entryDy=0;fontFamily=宋体;fontSize=13;" parent="1" source="D2ccaEsxYQHLOQnfDHp8-16" target="D2ccaEsxYQHLOQnfDHp8-17" edge="1">
          <mxGeometry relative="1" as="geometry" />
        </mxCell>
        <mxCell id="D2ccaEsxYQHLOQnfDHp8-16" value="中医证候积分" style="rounded=0;whiteSpace=wrap;html=1;fontFamily=宋体;fontSize=13;" parent="1" vertex="1">
          <mxGeometry x="640" y="610" width="95" height="40" as="geometry" />
        </mxCell>
        <mxCell id="D2ccaEsxYQHLOQnfDHp8-45" style="edgeStyle=orthogonalEdgeStyle;rounded=0;orthogonalLoop=1;jettySize=auto;html=1;exitX=0.5;exitY=1;exitDx=0;exitDy=0;entryX=0.5;entryY=0;entryDx=0;entryDy=0;fontFamily=宋体;fontSize=13;" parent="1" source="D2ccaEsxYQHLOQnfDHp8-17" target="D2ccaEsxYQHLOQnfDHp8-18" edge="1">
          <mxGeometry relative="1" as="geometry" />
        </mxCell>
        <mxCell id="D2ccaEsxYQHLOQnfDHp8-17" value="&lt;font&gt;整理资料，数据分析&lt;/font&gt;" style="rounded=0;whiteSpace=wrap;html=1;fontSize=13;fontFamily=宋体;" parent="1" vertex="1">
          <mxGeometry x="280" y="690" width="319" height="35" as="geometry" />
        </mxCell>
        <mxCell id="D2ccaEsxYQHLOQnfDHp8-18" value="&lt;font&gt;撰写学术论文&lt;/font&gt;" style="rounded=0;whiteSpace=wrap;html=1;fontSize=13;fontFamily=宋体;" parent="1" vertex="1">
          <mxGeometry x="280" y="760" width="319" height="35" as="geometry" />
        </mxCell>
        <mxCell id="HhtwTcWfGdD0Mg4PWCBJ-7" style="edgeStyle=orthogonalEdgeStyle;rounded=0;orthogonalLoop=1;jettySize=auto;html=1;entryX=0.5;entryY=0;entryDx=0;entryDy=0;fontSize=13;" edge="1" parent="1" source="HhtwTcWfGdD0Mg4PWCBJ-2" target="D2ccaEsxYQHLOQnfDHp8-2">
          <mxGeometry relative="1" as="geometry">
            <Array as="points">
              <mxPoint x="260" y="150" />
              <mxPoint x="440" y="150" />
            </Array>
          </mxGeometry>
        </mxCell>
        <mxCell id="HhtwTcWfGdD0Mg4PWCBJ-2" value="&lt;font&gt;制定常规治疗的药物和常规护理内容&lt;/font&gt;" style="rounded=0;whiteSpace=wrap;html=1;fontSize=13;fontFamily=宋体;" vertex="1" parent="1">
          <mxGeometry x="150" y="110" width="220" height="25" as="geometry" />
        </mxCell>
        <mxCell id="HhtwTcWfGdD0Mg4PWCBJ-9" style="edgeStyle=orthogonalEdgeStyle;rounded=0;orthogonalLoop=1;jettySize=auto;html=1;entryX=0.5;entryY=0;entryDx=0;entryDy=0;fontSize=13;" edge="1" parent="1" source="HhtwTcWfGdD0Mg4PWCBJ-3" target="D2ccaEsxYQHLOQnfDHp8-2">
          <mxGeometry relative="1" as="geometry">
            <Array as="points">
              <mxPoint x="620" y="150" />
              <mxPoint x="440" y="150" />
            </Array>
          </mxGeometry>
        </mxCell>
        <mxCell id="HhtwTcWfGdD0Mg4PWCBJ-3" value="&lt;font&gt;制定乌金馒头药膳方&lt;/font&gt;" style="rounded=0;whiteSpace=wrap;html=1;fontSize=13;fontFamily=宋体;" vertex="1" parent="1">
          <mxGeometry x="510" y="110" width="220" height="25" as="geometry" />
        </mxCell>
        <mxCell id="HhtwTcWfGdD0Mg4PWCBJ-12" style="edgeStyle=orthogonalEdgeStyle;rounded=0;orthogonalLoop=1;jettySize=auto;html=1;entryX=0.499;entryY=0.046;entryDx=0;entryDy=0;entryPerimeter=0;fontSize=13;" edge="1" parent="1" source="D2ccaEsxYQHLOQnfDHp8-2" target="D2ccaEsxYQHLOQnfDHp8-3">
          <mxGeometry relative="1" as="geometry">
            <Array as="points">
              <mxPoint x="440" y="208" />
              <mxPoint x="440" y="208" />
            </Array>
          </mxGeometry>
        </mxCell>
        <mxCell id="HhtwTcWfGdD0Mg4PWCBJ-15" style="edgeStyle=orthogonalEdgeStyle;rounded=0;orthogonalLoop=1;jettySize=auto;html=1;entryX=0.505;entryY=0.02;entryDx=0;entryDy=0;entryPerimeter=0;fontSize=13;" edge="1" parent="1" source="D2ccaEsxYQHLOQnfDHp8-4" target="D2ccaEsxYQHLOQnfDHp8-6">
          <mxGeometry relative="1" as="geometry" />
        </mxCell>
      </root>
    </mxGraphModel>
  </diagram>
</mxfile>
